<svg width="400" height="300" viewBox="0 0 400 300" xmlns="http://www.w3.org/2000/svg">
  <!-- Background -->
  <rect width="400" height="300" fill="#f8fafc"/>
  
  <!-- Floor -->
  <rect x="0" y="200" width="400" height="100" fill="#e2e8f0"/>
  
  <!-- Back wall -->
  <rect x="0" y="0" width="400" height="200" fill="#ffffff"/>
  
  <!-- Pharmacy counter -->
  <rect x="50" y="150" width="300" height="50" fill="#1e293b" rx="5"/>
  <rect x="50" y="140" width="300" height="20" fill="#334155" rx="3"/>
  
  <!-- Medicine shelves on back wall -->
  <rect x="20" y="40" width="360" height="100" fill="#f1f5f9" stroke="#cbd5e1" stroke-width="2" rx="5"/>
  
  <!-- Shelf divisions -->
  <line x1="20" y1="70" x2="380" y2="70" stroke="#cbd5e1" stroke-width="1"/>
  <line x1="20" y1="100" x2="380" y2="100" stroke="#cbd5e1" stroke-width="1"/>
  <line x1="130" y1="40" x2="130" y2="140" stroke="#cbd5e1" stroke-width="1"/>
  <line x1="270" y1="40" x2="270" y2="140" stroke="#cbd5e1" stroke-width="1"/>
  
  <!-- Medicine bottles and boxes -->
  <rect x="30" y="45" width="8" height="20" fill="#3b82f6" rx="1"/>
  <rect x="42" y="48" width="6" height="15" fill="#ef4444" rx="1"/>
  <rect x="52" y="46" width="10" height="18" fill="#10b981" rx="1"/>
  <rect x="66" y="49" width="7" height="14" fill="#f59e0b" rx="1"/>
  
  <rect x="140" y="47" width="12" height="16" fill="#8b5cf6" rx="1"/>
  <rect x="156" y="45" width="8" height="20" fill="#06b6d4" rx="1"/>
  <rect x="168" y="48" width="9" height="15" fill="#ec4899" rx="1"/>
  
  <rect x="280" y="46" width="11" height="17" fill="#84cc16" rx="1"/>
  <rect x="295" y="48" width="7" height="15" fill="#f97316" rx="1"/>
  <rect x="306" y="45" width="9" height="20" fill="#6366f1" rx="1"/>
  
  <!-- Second shelf row -->
  <rect x="35" y="75" width="9" height="18" fill="#14b8a6" rx="1"/>
  <rect x="48" y="77" width="11" height="16" fill="#d946ef" rx="1"/>
  <rect x="145" y="76" width="8" height="17" fill="#f43f5e" rx="1"/>
  <rect x="285" y="75" width="10" height="18" fill="#22c55e" rx="1"/>
  
  <!-- Third shelf row -->
  <rect x="32" y="105" width="10" height="15" fill="#a855f7" rx="1"/>
  <rect x="46" y="107" width="8" height="13" fill="#0ea5e9" rx="1"/>
  <rect x="148" y="106" width="12" height="14" fill="#f87171" rx="1"/>
  <rect x="290" y="105" width="9" height="15" fill="#fbbf24" rx="1"/>
  
  <!-- Computer terminal on counter -->
  <rect x="80" y="130" width="25" height="15" fill="#374151" rx="2"/>
  <rect x="82" y="132" width="21" height="11" fill="#60a5fa" rx="1"/>
  
  <!-- Cash register -->
  <rect x="280" y="125" width="30" height="20" fill="#1f2937" rx="3"/>
  <rect x="285" y="130" width="20" height="10" fill="#4ade80" rx="1"/>
  
  <!-- Prescription bottles on counter -->
  <circle cx="150" cy="135" r="4" fill="#ffffff" stroke="#cbd5e1"/>
  <circle cx="160" cy="135" r="4" fill="#ffffff" stroke="#cbd5e1"/>
  <circle cx="170" cy="135" r="4" fill="#ffffff" stroke="#cbd5e1"/>
  
  <!-- Ceiling lights -->
  <ellipse cx="100" cy="15" rx="20" ry="8" fill="#fef3c7" opacity="0.8"/>
  <ellipse cx="300" cy="15" rx="20" ry="8" fill="#fef3c7" opacity="0.8"/>
  
  <!-- Professional lighting effect -->
  <defs>
    <radialGradient id="light1" cx="50%" cy="0%" r="60%">
      <stop offset="0%" style="stop-color:#fbbf24;stop-opacity:0.3" />
      <stop offset="100%" style="stop-color:#fbbf24;stop-opacity:0" />
    </radialGradient>
  </defs>
  <ellipse cx="200" cy="0" rx="150" ry="100" fill="url(#light1)"/>
</svg>