<svg width="120" height="120" viewBox="0 0 120 120" xmlns="http://www.w3.org/2000/svg">
  <!-- Background circle with gradient -->
  <defs>
    <linearGradient id="logoGradient" x1="0%" y1="0%" x2="100%" y2="100%">
      <stop offset="0%" style="stop-color:#0080FF;stop-opacity:1" />
      <stop offset="100%" style="stop-color:#00E673;stop-opacity:1" />
    </linearGradient>
    <filter id="shadow" x="-20%" y="-20%" width="140%" height="140%">
      <feDropShadow dx="2" dy="2" stdDeviation="3" flood-color="#00000030"/>
    </filter>
  </defs>
  
  <!-- Main circle background -->
  <circle cx="60" cy="60" r="55" fill="url(#logoGradient)" filter="url(#shadow)"/>
  
  <!-- Medical cross -->
  <g fill="#FFFFFF">
    <!-- Horizontal bar of cross -->
    <rect x="35" y="52" width="50" height="16" rx="8"/>
    <!-- Vertical bar of cross -->
    <rect x="52" y="35" width="16" height="50" rx="8"/>
  </g>
  
  <!-- Pharmacy mortar and pestle -->
  <g fill="#FFFFFF" opacity="0.9">
    <!-- Mortar bowl -->
    <path d="M 72 75 Q 72 82 78 82 L 88 82 Q 94 82 94 75 L 94 70 Q 94 65 88 65 L 78 65 Q 72 65 72 70 Z"/>
    <!-- Pestle -->
    <ellipse cx="85" cy="62" rx="3" ry="8" transform="rotate(45 85 62)"/>
  </g>
  
  <!-- Pill capsules decoration -->
  <g fill="#FFFFFF" opacity="0.8">
    <!-- Capsule 1 -->
    <ellipse cx="42" cy="42" rx="3" ry="6" transform="rotate(30 42 42)"/>
    <!-- Capsule 2 -->
    <ellipse cx="78" cy="42" rx="3" ry="6" transform="rotate(-30 78 42)"/>
  </g>
  
  <!-- City skyline silhouette at bottom -->
  <g fill="#FFFFFF" opacity="0.6">
    <rect x="25" y="90" width="4" height="15"/>
    <rect x="32" y="85" width="4" height="20"/>
    <rect x="39" y="88" width="4" height="17"/>
    <rect x="46" y="92" width="4" height="13"/>
    <rect x="70" y="90" width="4" height="15"/>
    <rect x="77" y="87" width="4" height="18"/>
    <rect x="84" y="91" width="4" height="14"/>
    <rect x="91" y="89" width="4" height="16"/>
  </g>
</svg>